<mxfile host="65bd71144e">
    <diagram id="kMoXpkh5KnqZP9ytoyyw" name="第 1 页">
        <mxGraphModel dx="986" dy="432" grid="1" gridSize="10" guides="1" tooltips="1" connect="1" arrows="1" fold="1" page="1" pageScale="1" pageWidth="583" pageHeight="827" math="0" shadow="0">
            <root>
                <mxCell id="0"/>
                <mxCell id="1" parent="0"/>
                <mxCell id="22" value="" style="shape=ext;double=1;rounded=1;whiteSpace=wrap;html=1;shadow=1;fontSize=16;fillColor=#d5e8d4;strokeColor=#82b366;" parent="1" vertex="1">
                    <mxGeometry x="190" y="920" width="410" height="210" as="geometry"/>
                </mxCell>
                <mxCell id="18" value="" style="shape=ext;double=1;whiteSpace=wrap;html=1;shadow=1;fontSize=16;" parent="1" vertex="1">
                    <mxGeometry x="92.5" y="70" width="620" height="480" as="geometry"/>
                </mxCell>
                <mxCell id="2" value="&lt;font style=&quot;font-size: 16px&quot;&gt;Moment&lt;/font&gt;" style="ellipse;whiteSpace=wrap;html=1;aspect=fixed;fontStyle=1;" parent="1" vertex="1">
                    <mxGeometry x="360" y="350" width="80" height="80" as="geometry"/>
                </mxCell>
                <mxCell id="3" value="" style="endArrow=classic;html=1;fontSize=16;exitX=0.5;exitY=0;exitDx=0;exitDy=0;" parent="1" source="2" edge="1">
                    <mxGeometry width="50" height="50" relative="1" as="geometry">
                        <mxPoint x="350" y="320" as="sourcePoint"/>
                        <mxPoint x="400" y="300" as="targetPoint"/>
                    </mxGeometry>
                </mxCell>
                <mxCell id="4" value="GMM" style="rounded=0;whiteSpace=wrap;html=1;shadow=1;fontSize=16;fillColor=#ffe6cc;strokeColor=#d79b00;" parent="1" vertex="1">
                    <mxGeometry x="360" y="250" width="85" height="50" as="geometry"/>
                </mxCell>
                <mxCell id="6" value="GAN&lt;br&gt;[find the most informative &lt;i&gt;&lt;b&gt;moment&lt;/b&gt;]&lt;/i&gt;" style="rounded=0;whiteSpace=wrap;html=1;shadow=1;fontSize=16;fillColor=#ffe6cc;strokeColor=#d79b00;" parent="1" vertex="1">
                    <mxGeometry x="315.63" y="120" width="168.75" height="70" as="geometry"/>
                </mxCell>
                <mxCell id="7" value="" style="endArrow=classic;html=1;fontSize=16;exitX=0.5;exitY=0;exitDx=0;exitDy=0;" parent="1" edge="1">
                    <mxGeometry width="50" height="50" relative="1" as="geometry">
                        <mxPoint x="399.5" y="250" as="sourcePoint"/>
                        <mxPoint x="399.5" y="200" as="targetPoint"/>
                    </mxGeometry>
                </mxCell>
                <mxCell id="8" value="" style="endArrow=classic;html=1;fontSize=16;exitX=1;exitY=0.5;exitDx=0;exitDy=0;entryX=0;entryY=0.5;entryDx=0;entryDy=0;" parent="1" source="2" target="9" edge="1">
                    <mxGeometry width="50" height="50" relative="1" as="geometry">
                        <mxPoint x="450" y="390" as="sourcePoint"/>
                        <mxPoint x="515" y="360" as="targetPoint"/>
                    </mxGeometry>
                </mxCell>
                <mxCell id="9" value="Conditional&amp;nbsp;&lt;br&gt;or Unconditional?" style="rounded=0;whiteSpace=wrap;html=1;shadow=1;fontSize=16;fillColor=#dae8fc;strokeColor=#6c8ebf;" parent="1" vertex="1">
                    <mxGeometry x="580" y="355" width="120" height="70" as="geometry"/>
                </mxCell>
                <mxCell id="11" value="HJ Bound&lt;br&gt;&lt;b&gt;&lt;i&gt;first/second moment&lt;/i&gt;&lt;/b&gt;" style="rounded=0;whiteSpace=wrap;html=1;shadow=1;fontSize=16;fillColor=#d5e8d4;strokeColor=#82b366;" parent="1" vertex="1">
                    <mxGeometry x="100" y="360" width="160" height="60" as="geometry"/>
                </mxCell>
                <mxCell id="12" value="" style="endArrow=classic;html=1;fontSize=16;entryX=1;entryY=0.5;entryDx=0;entryDy=0;exitX=0;exitY=0.5;exitDx=0;exitDy=0;" parent="1" source="2" target="11" edge="1">
                    <mxGeometry width="50" height="50" relative="1" as="geometry">
                        <mxPoint x="340" y="360" as="sourcePoint"/>
                        <mxPoint x="420" y="390" as="targetPoint"/>
                    </mxGeometry>
                </mxCell>
                <mxCell id="13" value="" style="endArrow=classic;html=1;fontSize=16;exitX=0.5;exitY=1;exitDx=0;exitDy=0;entryX=0.5;entryY=0;entryDx=0;entryDy=0;" parent="1" source="2" target="14" edge="1">
                    <mxGeometry width="50" height="50" relative="1" as="geometry">
                        <mxPoint x="470" y="440" as="sourcePoint"/>
                        <mxPoint x="470" y="510" as="targetPoint"/>
                    </mxGeometry>
                </mxCell>
                <mxCell id="14" value="entropy/ new restrictrion&lt;br&gt;&lt;b&gt;&lt;i&gt;higher moment&lt;/i&gt;&lt;/b&gt;" style="rounded=0;whiteSpace=wrap;html=1;shadow=1;fontSize=16;fillColor=#d5e8d4;strokeColor=#82b366;" parent="1" vertex="1">
                    <mxGeometry x="305.01" y="490" width="189.99" height="60" as="geometry"/>
                </mxCell>
                <mxCell id="16" value="" style="shape=singleArrow;direction=south;whiteSpace=wrap;html=1;shadow=1;fontSize=16;" parent="1" vertex="1">
                    <mxGeometry x="370" y="610" width="60" height="100" as="geometry"/>
                </mxCell>
                <mxCell id="19" value="apply the higher moment information implied by entropy to machine learning tools" style="shape=ext;double=1;rounded=1;whiteSpace=wrap;html=1;shadow=1;fontSize=16;fontStyle=3" parent="1" vertex="1">
                    <mxGeometry x="205" y="720" width="395" height="110" as="geometry"/>
                </mxCell>
                <mxCell id="20" value="&lt;div style=&quot;text-align: center&quot;&gt;&lt;b&gt;&lt;font style=&quot;font-size: 18px&quot;&gt;To do list&lt;/font&gt;&lt;/b&gt;&lt;/div&gt;&lt;ol&gt;&lt;li&gt;The mechanism of GMM&lt;/li&gt;&lt;li&gt;How the GMM is conducted in GAN&amp;nbsp;&lt;/li&gt;&lt;li&gt;The method for application of higher moments. e.g. shrinking the cross section penalty&lt;/li&gt;&lt;li&gt;statistical component, e.g. Possion distribution&amp;nbsp;&lt;/li&gt;&lt;/ol&gt;" style="text;strokeColor=none;fillColor=none;html=1;whiteSpace=wrap;verticalAlign=middle;overflow=hidden;shadow=1;fontSize=16;" parent="1" vertex="1">
                    <mxGeometry x="210" y="930" width="380" height="190" as="geometry"/>
                </mxCell>
                <mxCell id="23" value="" style="shape=ext;double=1;rounded=1;whiteSpace=wrap;html=1;shadow=1;fontSize=16;fillColor=#fff2cc;strokeColor=#d6b656;" parent="1" vertex="1">
                    <mxGeometry x="197.5" y="1190" width="410" height="210" as="geometry"/>
                </mxCell>
                <mxCell id="24" value="&lt;div style=&quot;text-align: center&quot;&gt;&lt;span style=&quot;font-size: 18px&quot;&gt;&lt;b&gt;Potential directions&lt;/b&gt;&lt;/span&gt;&lt;/div&gt;&lt;ol&gt;&lt;li&gt;Use higher moment information to &lt;b&gt;evaluate&lt;/b&gt; model (GRS) or strategy (GAN)&lt;/li&gt;&lt;li&gt;Use higher moment as a &lt;b&gt;penalty &lt;/b&gt;(shrinking)&lt;/li&gt;&lt;li&gt;ML tools to find the&lt;b&gt; best weight &lt;/b&gt;for higher moment (improve the bound)&amp;nbsp;&lt;/li&gt;&lt;/ol&gt;" style="text;strokeColor=none;fillColor=none;html=1;whiteSpace=wrap;verticalAlign=middle;overflow=hidden;shadow=1;fontSize=16;" parent="1" vertex="1">
                    <mxGeometry x="212.5" y="1200" width="380" height="190" as="geometry"/>
                </mxCell>
                <mxCell id="26" value="" style="endArrow=none;html=1;fontSize=15;" parent="1" edge="1">
                    <mxGeometry width="50" height="50" relative="1" as="geometry">
                        <mxPoint x="80" y="880" as="sourcePoint"/>
                        <mxPoint x="720" y="880" as="targetPoint"/>
                    </mxGeometry>
                </mxCell>
            </root>
        </mxGraphModel>
    </diagram>
</mxfile>